<?xml version="1.0" standalone="no"?>
<!DOCTYPE svg PUBLIC "-//W3C//DTD SVG 20010904//EN"
 "http://www.w3.org/TR/2001/REC-SVG-20010904/DTD/svg10.dtd">
<svg version="1.0" xmlns="http://www.w3.org/2000/svg"
 width="512.000000pt" height="512.000000pt" viewBox="0 0 512.000000 512.000000"
 preserveAspectRatio="xMidYMid meet">

<g transform="translate(0.000000,512.000000) scale(0.100000,-0.100000)"
fill="#000000" stroke="none">
<path d="M455 4668 c-109 -121 -199 -273 -247 -418 -45 -132 -53 -187 -52
-350 1 -134 4 -168 27 -252 63 -239 199 -439 397 -587 l76 -57 -23 -59 c-53
-135 -75 -243 -80 -401 -4 -118 -2 -169 11 -234 36 -174 113 -309 260 -455
634 -630 1362 -1337 1403 -1364 88 -56 184 -83 303 -89 127 -5 211 12 320 66
71 34 109 69 683 637 335 330 658 646 717 703 121 114 186 195 235 292 117
232 120 523 10 829 -14 37 -25 71 -25 74 0 3 28 25 62 50 92 65 226 210 286
306 124 201 179 477 142 711 -33 208 -140 427 -287 589 -46 51 -60 61 -88 61
-46 0 -195 -45 -281 -85 -214 -98 -504 -335 -673 -550 -35 -44 -65 -82 -67
-84 -2 -2 -48 20 -102 48 -575 295 -1183 300 -1771 15 -73 -36 -134 -64 -135
-62 -22 37 -146 179 -230 263 -225 223 -483 385 -697 439 -107 26 -120 23
-174 -36z m166 -95 c40 -34 65 -90 75 -168 4 -33 8 -224 8 -425 2 -402 3 -417
68 -550 43 -88 146 -188 274 -264 178 -106 187 -119 140 -181 -25 -32 -25 -32
-83 -23 -507 77 -864 497 -840 988 3 68 14 147 27 195 50 186 212 455 275 455
13 0 38 -12 56 -27z m3994 -14 c88 -97 166 -244 211 -396 35 -121 44 -311 19
-433 -74 -366 -350 -651 -718 -745 -51 -13 -110 -25 -132 -26 -35 -4 -42 0
-62 30 -36 53 -31 66 50 117 262 169 311 214 372 337 63 131 69 177 66 577 -2
440 8 502 89 558 46 31 62 28 105 -19z m-3680 -116 c264 -169 544 -474 650
-708 37 -81 60 -100 98 -86 44 17 43 45 -7 148 -26 53 -45 97 -43 99 12 13
239 119 315 148 213 82 396 117 608 117 234 1 453 -46 689 -146 87 -37 223
-104 243 -120 2 -2 -11 -31 -28 -66 -63 -123 -67 -170 -17 -183 35 -9 55 12
103 107 123 247 358 500 634 684 41 28 95 60 118 72 40 20 43 21 38 4 -21 -71
-26 -146 -26 -473 0 -405 -6 -457 -61 -560 -43 -81 -121 -152 -271 -245 -70
-43 -137 -92 -149 -109 -33 -44 -37 -114 -9 -171 33 -67 248 -350 299 -392 8
-7 23 -13 33 -13 22 0 58 34 58 55 0 8 -28 49 -63 92 -35 43 -75 94 -90 114
l-28 37 78 17 c43 9 120 33 171 52 52 19 95 33 97 31 1 -2 16 -46 33 -98 41
-132 55 -242 50 -390 -4 -103 -10 -140 -33 -209 -37 -109 -102 -207 -202 -304
-140 -137 -261 -216 -513 -337 -80 -39 -156 -76 -170 -83 -36 -18 -49 -61 -25
-87 27 -30 55 -25 173 30 l107 51 -95 -96 c-52 -53 -161 -160 -242 -237 l-148
-140 -56 52 c-391 357 -997 357 -1388 0 l-56 -52 -188 180 c-103 99 -212 206
-242 237 l-55 56 108 -51 c59 -27 119 -50 132 -50 49 0 74 60 38 92 -10 9 -63
36 -118 61 -409 187 -642 371 -750 592 -73 150 -93 319 -60 522 16 96 60 248
74 258 5 3 49 -10 98 -29 48 -19 121 -41 161 -49 41 -9 76 -18 78 -20 3 -2
-34 -52 -81 -111 -64 -80 -85 -113 -85 -136 0 -34 29 -55 63 -46 35 9 268 300
318 398 25 49 25 121 -1 162 -22 36 -66 69 -193 145 -119 71 -199 147 -237
224 -55 113 -61 170 -59 571 1 291 -1 372 -13 418 l-15 57 41 -21 c23 -11 73
-41 111 -65z m1765 -3197 c142 -23 270 -74 390 -156 61 -42 143 -117 138 -128
-11 -25 -372 -364 -412 -387 -104 -61 -267 -82 -385 -50 -118 31 -156 59 -354
254 l-187 185 37 39 c118 122 332 223 528 250 66 9 165 6 245 -7z"/>
<path d="M1198 2279 c-11 -6 -18 -22 -18 -38 0 -15 8 -35 18 -43 9 -8 114 -66
232 -128 272 -144 526 -285 565 -315 24 -17 43 -55 89 -169 48 -121 63 -149
84 -157 35 -13 72 12 72 49 0 43 -117 324 -143 345 -60 47 -515 301 -754 421
-96 48 -116 52 -145 35z"/>
<path d="M3655 2179 c-408 -215 -611 -333 -646 -375 -22 -26 -129 -299 -129
-329 0 -15 10 -31 25 -41 48 -31 65 -11 129 148 32 78 66 151 75 160 21 23
220 134 537 303 142 76 267 145 277 153 20 17 23 62 5 80 -25 25 -69 9 -273
-99z"/>
<path d="M2376 889 c-13 -19 -13 -27 1 -73 17 -59 31 -88 47 -98 22 -15 56 -8
71 16 15 22 14 29 -6 87 -12 35 -26 70 -32 77 -15 20 -64 15 -81 -9z"/>
<path d="M2648 863 c-42 -96 -34 -153 22 -153 35 0 42 10 69 89 19 59 20 67 6
88 -11 16 -25 23 -46 23 -26 0 -33 -6 -51 -47z"/>
</g>
</svg>
